<?xml version="1.0" standalone="no"?><!DOCTYPE svg PUBLIC "-//W3C//DTD SVG 1.1//EN" "http://www.w3.org/Graphics/SVG/1.1/DTD/svg11.dtd"><svg t="1592323421074" class="icon" viewBox="0 0 1024 1024" version="1.1" xmlns="http://www.w3.org/2000/svg" p-id="4409" xmlns:xlink="http://www.w3.org/1999/xlink" width="48" height="48"><defs><style type="text/css"></style></defs><path d="M1024 288v576c0 53-43 96-96 96H96c-53 0-96-43-96-96V288c0-53 43-96 96-96h176l24.6-65.8c14-37.4 49.8-62.2 89.8-62.2h251c40 0 75.8 24.8 89.8 62.2L752 192h176c53 0 96 43 96 96zM752 576c0-132.4-107.6-240-240-240s-240 107.6-240 240 107.6 240 240 240 240-107.6 240-240z m-64 0c0 97-79 176-176 176s-176-79-176-176 79-176 176-176 176 79 176 176z" p-id="4410" fill="#7ae309"></path></svg>